<svg width="40" height="40" viewBox="0 0 40 40" fill="none" xmlns="http://www.w3.org/2000/svg">
<g clip-path="url(#clip0_2293_5089)">
<path fill-rule="evenodd" clip-rule="evenodd" d="M20.006 0C31.0471 0 40.012 8.95289 40.012 20.006C40.012 31.0471 31.0591 40.012 20.006 40.012C8.96489 40.012 0 31.0591 0 20.006C0 8.96489 8.95289 0 20.006 0ZM15.1095 12.7093C15.7936 12.7093 16.4176 12.7693 16.9817 12.8893C17.5457 13.0093 18.0258 13.2133 18.4338 13.4773C18.8299 13.7534 19.1419 14.1134 19.3699 14.5695C19.586 15.0135 19.694 15.5896 19.694 16.2496C19.694 16.9697 19.5259 17.5698 19.2019 18.0618C18.8659 18.5418 18.3858 18.9379 17.7378 19.2499C18.6259 19.5019 19.2739 19.946 19.706 20.5821C20.138 21.2181 20.354 21.9862 20.354 22.8863C20.354 23.6184 20.21 24.2424 19.934 24.7705C19.646 25.2985 19.2739 25.7306 18.8059 26.0666C18.3378 26.4026 17.7858 26.6547 17.1737 26.8107C16.5737 26.9667 15.9496 27.0507 15.3015 27.0507H8.35283V12.7213H15.1095V12.7093ZM23.5583 13.8614H29.3669V15.2775H23.5583V13.8614ZM24.8545 24.5424C25.2865 24.9625 25.8986 25.1665 26.7027 25.1665C27.2787 25.1665 27.7828 25.0225 28.1908 24.7345C28.5989 24.4464 28.8509 24.1344 28.9469 23.8104H31.4551C31.0471 25.0585 30.435 25.9466 29.607 26.4866C28.7789 27.0267 27.7708 27.2907 26.6067 27.2907C25.7906 27.2907 25.0585 27.1587 24.3984 26.8947C23.7384 26.6307 23.1863 26.2586 22.7183 25.7786C22.2622 25.2985 21.9142 24.7225 21.6622 24.0504C21.4221 23.3783 21.2901 22.6343 21.2901 21.8422C21.2901 21.0621 21.4221 20.342 21.6742 19.67C21.9382 18.9979 22.2862 18.4218 22.7663 17.9298C23.2343 17.4377 23.7984 17.0537 24.4464 16.7777C25.0945 16.4896 25.8146 16.3576 26.6187 16.3576C27.4947 16.3576 28.2628 16.5256 28.9229 16.8737C29.583 17.2097 30.123 17.6778 30.543 18.2538C30.9631 18.8299 31.2631 19.4899 31.4551 20.222C31.6472 20.9541 31.7072 21.7222 31.6592 22.5382H24.1704C24.1704 23.3543 24.4464 24.1344 24.8785 24.5424H24.8545ZM28.1308 19.0939C27.7948 18.7219 27.2187 18.5178 26.5226 18.5178C26.0666 18.5178 25.6946 18.5899 25.3945 18.7459C25.0945 18.9019 24.8545 19.0939 24.6745 19.3219C24.4944 19.5499 24.3624 19.79 24.2904 20.054C24.2184 20.306 24.1704 20.534 24.1584 20.7381H28.8029C28.7309 20.006 28.4788 19.4779 28.1428 19.0939H28.1308ZM14.7135 18.4938C15.2775 18.4938 15.7336 18.3618 16.1056 18.0978C16.4656 17.8338 16.6457 17.4017 16.6457 16.8017C16.6457 16.4656 16.5857 16.1896 16.4656 15.9736C16.3456 15.7576 16.1776 15.5896 15.9736 15.4695C15.7696 15.3495 15.5415 15.2655 15.2775 15.2175C15.0135 15.1695 14.7495 15.1455 14.4734 15.1455H11.5211V18.4938H14.7135ZM14.8815 24.5905C15.1935 24.5905 15.4815 24.5665 15.7576 24.4944C16.0456 24.4344 16.2856 24.3384 16.5016 24.1944C16.7057 24.0504 16.8857 23.8704 17.0177 23.6184C17.1497 23.3783 17.2097 23.0663 17.2097 22.6943C17.2097 21.9622 17.0057 21.4341 16.5857 21.1101C16.1776 20.7981 15.6256 20.6421 14.9415 20.6421H11.5211V24.5905H14.8935V24.6025L14.8815 24.5905Z" fill="#053EFF"/>
</g>
<defs>
<clipPath id="clip0_2293_5089">
<rect width="40" height="40" fill="white"/>
</clipPath>
</defs>
</svg>
