<svg width="40" height="40" viewBox="0 0 40 40" fill="none" xmlns="http://www.w3.org/2000/svg">
<g clip-path="url(#clip0_2293_5087)">
<path fill-rule="evenodd" clip-rule="evenodd" d="M20.006 0C31.0471 0 40.012 8.95289 40.012 20.006C40.012 31.0471 31.0591 40.012 20.006 40.012C8.96489 40.012 0 31.0591 0 20.006C0 8.96489 8.95289 0 20.006 0ZM20.006 32.1272C13.3213 32.1272 7.88479 26.6907 7.88479 20.006C7.88479 13.3213 13.3213 7.88479 20.006 7.88479C26.6907 7.88479 32.1272 13.3213 32.1272 20.006C32.1272 26.6907 26.6907 32.1272 20.006 32.1272ZM30.231 21.6622C29.871 21.5542 27.0267 20.7021 23.7864 21.2181C25.1425 24.9385 25.6946 27.9748 25.8026 28.5989C28.1188 27.0267 29.775 24.5424 30.243 21.6622H30.231ZM24.0504 29.5469C23.8944 28.6349 23.2943 25.4785 21.8422 21.6982C21.8182 21.7102 21.7942 21.7102 21.7702 21.7222C15.9256 23.7624 13.8254 27.8068 13.6454 28.1908C15.3975 29.559 17.6058 30.375 20.006 30.375C21.4461 30.375 22.8143 30.087 24.0504 29.5469ZM12.3132 26.9427C12.5533 26.5346 15.3975 21.8422 20.7261 20.114C20.8581 20.066 20.9901 20.03 21.1341 19.994C20.8701 19.4059 20.5941 18.8179 20.294 18.2418C15.1215 19.79 10.105 19.73 9.64896 19.718V20.03C9.64896 22.6823 10.6571 25.1185 12.3132 26.9547V26.9427ZM9.87699 17.8938C10.345 17.8938 14.6055 17.9178 19.4539 16.6337C17.7378 13.5854 15.8896 11.0171 15.6136 10.6451C12.7093 12.0132 10.5491 14.6895 9.87699 17.8938ZM17.5818 9.94899C17.8698 10.333 19.754 12.9013 21.4461 16.0096C25.1305 14.6295 26.6907 12.5293 26.8707 12.2652C25.0465 10.6451 22.6343 9.66096 20.006 9.66096C19.1779 9.66096 18.3618 9.76898 17.5818 9.94899ZM28.0228 13.4773C27.8068 13.7654 26.0666 15.9976 22.2382 17.5578C22.4782 18.0498 22.7063 18.5539 22.9223 19.0579C22.9943 19.2379 23.0783 19.4179 23.1503 19.598C26.5947 19.1659 30.027 19.862 30.363 19.934C30.339 17.4857 29.4629 15.2415 28.0228 13.4893V13.4773Z" fill="#EA4C89"/>
</g>
<defs>
<clipPath id="clip0_2293_5087">
<rect width="40" height="40" fill="white"/>
</clipPath>
</defs>
</svg>
