<svg width="425" height="500" viewBox="0 0 425 500" fill="none" xmlns="http://www.w3.org/2000/svg">
<g clip-path="url(#clip0_2297_5126)">
<path d="M220.04 145.475C220.458 145.576 220.869 145.63 221.267 145.63C222.028 145.63 222.729 145.442 223.308 145.078C223.908 144.701 224.326 144.155 224.44 143.595C224.528 143.178 224.386 142.74 224.043 142.349C223.342 141.561 221.967 141.102 220.626 141.224C218.403 141.419 217.203 142.78 216.624 143.434L216.361 143.73L216.691 143.946C217.857 144.694 218.585 145.132 220.033 145.489L220.04 145.475ZM220.687 141.891C221.988 141.776 223.079 142.275 223.537 142.794C223.679 142.955 223.834 143.198 223.78 143.454C223.699 143.831 223.389 144.229 222.944 144.505C222.52 144.768 221.603 145.165 220.195 144.822C218.989 144.525 218.342 144.175 217.399 143.582C218.181 142.753 219.151 142.025 220.687 141.891ZM203.047 145.078C203.626 145.442 204.327 145.63 205.088 145.63C205.486 145.63 205.897 145.576 206.315 145.475C207.763 145.125 208.491 144.68 209.657 143.932L209.987 143.717L209.724 143.42C209.145 142.767 207.945 141.406 205.722 141.21C204.381 141.089 203.006 141.547 202.305 142.335C201.962 142.726 201.82 143.164 201.908 143.582C202.029 144.148 202.44 144.687 203.04 145.064L203.047 145.078ZM202.818 142.794C203.229 142.329 204.152 141.877 205.29 141.877C205.412 141.877 205.54 141.877 205.668 141.891C207.204 142.025 208.174 142.753 208.956 143.582C208.013 144.175 207.359 144.525 206.16 144.822C204.745 145.165 203.828 144.768 203.411 144.505C202.966 144.229 202.656 143.831 202.575 143.454C202.521 143.198 202.676 142.949 202.818 142.794ZM230.572 165.299C226.974 164.699 219.488 163.453 215.728 165.386C215.155 165.683 214.764 166.02 214.448 166.296C214.003 166.68 213.706 166.936 213.134 166.936C212.561 166.936 212.264 166.68 211.82 166.296C211.503 166.02 211.112 165.683 210.539 165.386C206.78 163.446 199.294 164.699 195.695 165.299C191.545 165.993 190.797 166.977 190.689 167.165L190.339 167.778L191.033 167.664C191.471 167.59 191.882 167.603 192.623 167.63C193.155 167.65 193.856 167.671 194.846 167.671C195.925 167.671 199.226 168.27 202.717 168.904C206.955 169.672 211.341 170.474 213.134 170.474C214.926 170.474 219.313 169.679 223.551 168.904C227.041 168.27 230.343 167.671 231.421 167.671C232.418 167.671 233.112 167.65 233.644 167.63C234.386 167.603 234.797 167.597 235.235 167.664L235.929 167.778L235.578 167.165C235.471 166.977 234.723 165.986 230.572 165.299ZM233.624 166.956C233.099 166.977 232.405 166.997 231.421 166.997C230.282 166.997 227.109 167.576 223.43 168.243C219.414 168.971 214.865 169.8 213.134 169.8C211.402 169.8 206.854 168.971 202.838 168.243C199.159 167.576 195.985 166.997 194.846 166.997C193.863 166.997 193.169 166.977 192.643 166.956C192.468 166.956 192.306 166.943 192.158 166.943C192.818 166.64 193.943 166.276 195.803 165.966C199.327 165.38 206.665 164.153 210.23 165.993C210.735 166.249 211.079 166.552 211.382 166.815C211.86 167.226 212.312 167.617 213.134 167.617C213.956 167.617 214.407 167.226 214.886 166.815C215.189 166.552 215.532 166.256 216.038 165.993C219.602 164.16 226.94 165.38 230.464 165.966C232.331 166.276 233.449 166.646 234.109 166.943C233.961 166.943 233.799 166.95 233.624 166.956ZM424.037 390.917C417.245 380.244 421.126 372.482 412.393 357.927C409.482 340.462 393.958 295.829 382.314 284.186C370.671 272.542 352.478 265.993 336.953 259.201C321.429 252.409 305.661 249.498 298.869 244.647C292.077 239.795 288.196 239.553 286.498 239.067C284.8 238.582 284.8 236.642 278.736 235.429C275.34 232.275 269.276 228.394 265.152 229.607L265.368 229.351C264.485 228.596 263.804 228.185 263.252 227.855C261.668 226.905 260.866 226.427 257.774 219.049C253.852 209.696 254.465 192.17 254.539 190.304C255.227 189.408 255.927 188.491 256.648 187.548C268.42 172.253 272.059 150.468 273.804 139.997C274.147 137.935 274.417 136.312 274.659 135.308C275.663 131.117 276.546 130.038 278.15 128.084C278.824 127.262 279.659 126.238 280.677 124.769C282.637 121.932 283.958 116.279 284.74 111.886C289.618 106.017 292.179 96.4962 296.572 83.0065C291.073 74.9208 283.958 56.8088 281.371 49.6934C278.783 42.578 278.136 27.7003 269.727 22.5254C260.024 -4.96597 232.209 -2.70197 221.213 5.38374C210.863 1.5026 195.985 -0.761401 173.022 6.91328C150.058 14.588 143.59 38.3734 141.326 50.0169C139.062 61.6603 130.005 71.0397 125.801 75.8911C127.418 77.5083 130.005 78.1551 129.359 89.1517C128.88 97.2509 131.737 105.519 135.214 110.606L135.113 110.565C135.059 110.714 133.806 114.298 136.232 122.903C137.923 128.913 142.047 133.933 144.775 137.255C145.948 138.69 146.878 139.815 147.161 140.489C147.538 141.385 147.653 141.891 147.875 142.895C148.232 144.485 148.839 147.14 151.028 154.114C151.392 155.266 151.729 156.371 152.059 157.449C155.098 167.367 157.302 174.53 167.827 187.083C168.703 188.121 169.565 189.172 170.441 190.223C170.508 191.739 171.182 209.568 167.213 219.028C164.121 226.407 163.325 226.885 161.735 227.835C161.189 228.165 160.502 228.576 159.62 229.331L160.057 229.843C160.9 229.122 161.526 228.745 162.079 228.415C163.79 227.384 164.653 226.872 167.827 219.291C171.465 210.619 171.263 195.122 171.142 191.072C181.626 203.74 192.63 216.582 213.12 216.582C233.611 216.582 241.717 207.041 253.832 191.2C253.711 195.445 253.549 210.707 257.147 219.284C260.327 226.865 261.183 227.384 262.895 228.408C263.447 228.738 264.074 229.115 264.916 229.836L265.138 229.58C267.2 231.042 268.427 232.087 268.103 234.674C267.78 237.262 259.047 243.73 259.047 243.73C252.579 250.522 240.935 257.961 230.127 260.225C219.319 262.489 212.15 263.783 202.77 261.519C193.391 259.255 187.569 259.255 173.985 257.314C160.401 255.374 149.728 247.288 148.111 241.466C146.494 235.644 153.609 234.027 159.835 229.58C155.711 228.367 149.647 232.248 146.251 235.402C140.187 236.615 140.187 238.555 138.489 239.04C136.791 239.526 132.91 239.768 126.118 244.62C119.326 249.471 103.558 252.382 88.0338 259.174C72.5091 265.966 54.3162 272.515 42.6728 284.159C31.0293 295.802 15.5047 340.435 12.5938 357.9C3.86121 372.455 7.74236 380.217 0.950339 390.89C-2.8567 396.874 5.2223 404.683 14.4266 412.102C13.2339 423.765 12.1154 435.476 12.1154 444.256C12.1154 455.414 12.7084 468.661 13.2878 481.47C13.5843 487.993 13.8606 494.151 14.056 499.98L14.7298 499.96C14.5276 494.124 14.2514 487.966 13.9616 481.443C13.3889 468.641 12.7892 455.407 12.7892 444.263C12.7892 435.624 13.8808 424.116 15.0532 412.614C22.1013 418.247 29.6547 423.63 32.9699 427.768C40.2201 436.83 64.4032 451.816 73.8837 452.961C73.6816 457.651 72.9539 463.924 72.1992 470.46C71.0537 480.338 69.76 491.537 69.9352 499.98L70.609 499.966C70.4405 491.571 71.7275 480.399 72.873 470.541C73.6277 464.005 74.3554 457.739 74.5575 453.015C74.9551 453.036 75.3324 453.035 75.6693 452.995C83.4316 452.025 83.5462 440.381 85.4329 431.649C84.4019 448.144 87.4341 461.728 85.4329 469.49C83.4316 477.252 83.5529 476.282 85.4329 484.044C87.3128 491.806 85.4935 494.556 85.4329 499.973H339.568C339.507 494.556 337.688 491.806 339.568 484.044C341.448 476.282 341.569 477.252 339.568 469.49C337.566 461.728 340.599 448.144 339.568 431.649C341.448 440.368 341.569 451.998 349.298 452.988C349.506 457.712 350.227 463.985 350.989 470.534C352.128 480.392 353.421 491.564 353.253 499.96L353.927 499.973C354.095 491.53 352.801 480.332 351.663 470.453C350.908 463.944 350.187 457.705 349.978 453.022C358.495 453.103 384.464 437.215 392.024 427.761C395.171 423.826 402.158 418.772 408.889 413.443C410.028 424.668 411.066 435.833 411.066 444.256C411.066 455.407 410.473 468.648 409.893 481.457C409.604 487.973 409.321 494.124 409.125 499.953L409.799 499.973C409.995 494.151 410.277 487.999 410.567 481.484C411.14 468.668 411.74 455.414 411.74 444.249C411.74 435.685 410.675 424.318 409.516 412.937C419.145 405.269 427.992 397.096 424.043 390.883L424.037 390.917ZM270.462 125.834C267.551 128.381 265.489 129.23 252.269 128.987C239.048 128.745 235.895 126.683 232.256 123.287C228.618 119.891 224.615 106.913 223.645 103.032C222.675 99.151 222.5 96.6377 223.645 94.6634C227.162 88.5992 247.538 87.6289 253.845 87.9927C260.152 88.3566 265.368 89.5694 270.098 91.7526C274.828 93.9357 276.647 96.4827 276.89 102.547C277.132 108.611 273.372 123.287 270.462 125.834ZM173.028 67.1586C181.114 67.1586 190.655 63.2505 199.226 57.1323C206.018 52.2808 207.534 46.3985 209.253 43.2249C209.253 43.2249 214.104 31.9049 222.513 31.9049C230.922 31.9049 242.566 35.1391 247.741 41.6077C252.916 48.0763 250.651 59.3963 253.239 65.5953C255.826 71.7944 268.945 77.5352 271.856 83.0335C271.856 83.0402 271.863 83.047 271.87 83.0537C271.317 82.4001 270.603 81.6859 269.734 80.9851C265.233 77.3331 258.656 72.3334 246.528 73.142C234.399 73.9505 228.254 78.6403 225.505 82.3597C223.012 85.7355 227.095 85.594 230.141 84.462C233.186 83.33 239.412 80.0216 245.719 79.6981C252.026 79.3747 259.95 79.4488 270.057 84.9673C272.032 86.0454 272.961 86.0387 273.083 85.439C273.366 86.0319 273.662 86.6788 273.965 87.3728C268.73 86.2273 261.54 85.2099 252.269 84.9943C231.407 84.5091 224.454 89.5223 221.866 90.1691C219.279 90.816 213.134 90.816 213.134 90.816C213.134 90.816 206.989 90.816 204.401 90.1691C201.814 89.5223 194.86 84.5091 173.999 84.9943C168.177 85.129 163.171 85.5805 158.959 86.1802C159.256 85.7759 159.552 85.3649 159.855 84.9471C169.329 80.1294 176.842 80.0553 182.873 80.3652C189.18 80.6886 195.406 83.997 198.451 85.129C201.497 86.261 205.58 86.4025 203.087 83.0268C200.338 79.3073 194.193 74.6176 182.064 73.8091C174.531 73.3037 169.147 75.0421 165.064 77.3061C167.773 73.3037 170.454 69.5101 173.028 67.1518V67.1586ZM149.816 102.547C150.058 96.4827 151.877 93.9357 156.608 91.7526C161.338 89.5694 166.553 88.3566 172.86 87.9927C179.167 87.6289 199.543 88.5992 203.06 94.6634C204.206 96.6377 204.03 99.151 203.06 103.032C202.09 106.913 198.087 119.891 194.449 123.287C190.81 126.683 187.657 128.745 174.437 128.987C161.216 129.23 159.155 128.381 156.244 125.834C153.333 123.287 149.573 108.611 149.816 102.547ZM213.127 215.922C192.562 215.922 181.64 202.709 171.074 189.933C170.165 188.835 169.262 187.743 168.352 186.652C157.908 174.2 155.732 167.091 152.713 157.254C152.383 156.175 152.039 155.064 151.675 153.911C149.492 146.964 148.892 144.323 148.535 142.746C148.306 141.736 148.178 141.183 147.781 140.233C147.464 139.472 146.554 138.367 145.294 136.83C142.599 133.549 138.536 128.596 136.878 122.721C134.971 115.956 135.403 112.351 135.639 111.205C136.757 112.735 137.923 113.941 139.062 114.696C137.768 112.755 136.474 110.491 137.444 108.874C138.415 107.257 143.266 107.58 144.56 109.198C145.854 110.815 142.943 125.045 147.471 131.191C146.258 125.726 146.817 120.511 147.639 112.459C149.31 117.458 151.386 124.001 152.969 126.07C155.267 129.075 158.467 131.406 173.345 130.759C188.223 130.113 192.104 128.495 196.12 124.938C200.136 121.38 203.424 112.324 205.365 106.502C207.305 100.681 209.569 97.7697 213.127 97.7697C216.685 97.7697 218.949 100.681 220.889 106.502C222.83 112.324 226.118 121.38 230.134 124.938C234.15 128.495 238.031 130.113 252.909 130.759C267.787 131.406 270.987 129.075 273.285 126.07C274.72 124.196 276.566 118.617 278.143 113.86C277.894 117.485 277.341 121.42 276.378 125.672C280.178 120.45 283.028 108.564 284.093 111.583C283.325 115.949 282.017 121.629 280.117 124.378C279.12 125.827 278.325 126.791 277.624 127.646C275.96 129.675 275.043 130.793 274.006 135.139C273.757 136.163 273.487 137.801 273.143 139.869C271.405 150.286 267.787 171.963 256.116 187.117C255.274 188.208 254.459 189.273 253.67 190.311C241.05 206.819 234.096 215.909 213.127 215.909V215.922Z" fill="url(#paint0_linear_2297_5126)"/>
</g>
<defs>
<linearGradient id="paint0_linear_2297_5126" x1="-107.459" y1="488.202" x2="568.184" y2="89.6614" gradientUnits="userSpaceOnUse">

    <stop offset="0%" stop-color="#7A5FFF">
        <animate attributeName="stop-color" values="#f12827; #f3911c; #f3e417; #5cc2d9; #a62991; #b100e0; #f12827;" dur="4s" repeatCount="indefinite"></animate>
    </stop>

    <stop offset="20%" stop-color="#7A5FFF">
        <animate attributeName="stop-color" values="#f3911c; #f3e417; #5cc2d9; #a62991; #b100e0; #f12827; #f3911c;" dur="4s" repeatCount="indefinite"></animate>
    </stop>

    <stop offset="40%" stop-color="#7A5FFF">
        <animate attributeName="stop-color" values="#f3e417; #5cc2d9; #a62991; #b100e0; #f12827; #f3911c; #f3e417;" dur="4s" repeatCount="indefinite"></animate>
    </stop>

    <stop offset="60%" stop-color="#7A5FFF">
        <animate attributeName="stop-color" values="#5cc2d9; #a62991; #b100e0; #f12827; #f3911c; #f3e417; #5cc2d9;" dur="4s" repeatCount="indefinite"></animate>
    </stop>

    <stop offset="80%" stop-color="#7A5FFF">
        <animate attributeName="stop-color" values="#a62991; #b100e0; #f12827; #f3911c; #f3e417; #5cc2d9; #a62991;" dur="4s" repeatCount="indefinite"></animate>
    </stop>

    <stop offset="100%" stop-color="#01FF89">
        <animate attributeName="stop-color" values="#b100e0; #f12827; #f3911c; #f3e417; #5cc2d9; #a62991; #b100e0;" dur="4s" repeatCount="indefinite"></animate>
    </stop>

</linearGradient>
<clipPath id="clip0_2297_5126">
<rect width="425" height="500" fill="white"/>
</clipPath>
</defs>
</svg>
