<svg width="40" height="40" viewBox="0 0 40 40" fill="none" xmlns="http://www.w3.org/2000/svg">
<g clip-path="url(#clip0_2293_5091)">
<path fill-rule="evenodd" clip-rule="evenodd" d="M19.9993 0.498312C8.95581 0.498312 0 9.45263 0 20.4975C0 29.3345 5.72988 36.8286 13.6766 39.4744C14.6769 39.6596 15.0445 39.0396 15.0445 38.511C15.0445 38.0341 15.0246 36.4588 15.0164 34.789C9.45194 35.9989 8.27894 32.4283 8.27894 32.4283C7.36944 30.1162 6.05837 29.5013 6.05837 29.5013C4.24388 28.2589 6.19644 28.2862 6.19644 28.2862C8.20431 28.4265 9.26144 30.3458 9.26144 30.3458C11.0464 33.4034 13.9416 32.5183 15.0821 32.0082C15.2622 30.7156 15.779 29.8328 16.3518 29.333C11.9093 28.8288 7.2395 27.1133 7.2395 19.4493C7.2395 17.2664 8.022 15.4814 9.29981 14.0818C9.09169 13.5769 8.40663 11.5439 9.4925 8.78963C9.4925 8.78963 11.1719 8.2515 14.9943 10.8396C16.5888 10.3974 18.2992 10.1745 19.9978 10.1671C21.6978 10.1745 23.4112 10.3967 25.0079 10.8396C28.8252 8.253 30.5031 8.78963 30.5031 8.78963C31.5904 11.5446 30.9084 13.5791 30.7002 14.0818C31.9824 15.4814 32.7583 17.2664 32.7583 19.4493C32.7583 27.1309 28.0781 28.8199 23.626 29.3153C24.3436 29.9353 24.9843 31.1526 24.9843 33.0173C24.9843 35.6918 24.9614 37.8473 24.9614 38.5051C24.9614 39.0373 25.3217 39.6596 26.3359 39.4647C34.2782 36.8176 40.0008 29.3226 40.0008 20.4908C40.0008 9.44738 31.0464 0.491562 20.0007 0.491562L19.9993 0.498249L19.9993 0.498312Z" fill="#333333"/>
</g>
<defs>
<clipPath id="clip0_2293_5091">
<rect width="40" height="40" fill="white"/>
</clipPath>
</defs>
</svg>
