<svg width="40" height="40" viewBox="0 0 40 40" fill="none" xmlns="http://www.w3.org/2000/svg">
<g clip-path="url(#clip0_2293_5121)">
<path fill-rule="evenodd" clip-rule="evenodd" d="M20.0001 0C31.0458 0 40.0001 8.95429 40.0001 20.0001C40.0001 31.0458 31.0458 40.0001 20.0001 40.0001C8.95429 40.0001 0 31.0458 0 20.0001C0 8.95429 8.95429 0 20.0001 0ZM15.123 8.56333H24.8776C28.5407 8.56333 31.5363 11.5218 31.5363 15.136V24.8643C31.5363 28.4793 28.5407 31.4368 24.8777 31.4368L15.123 31.4367C11.4599 31.4367 8.46397 28.4791 8.46397 24.8641V15.1359C8.46397 11.5218 11.4599 8.56333 15.123 8.56333ZM19.938 13.8245C23.4976 13.8245 26.3861 16.7131 26.3861 20.2727C26.3861 23.8327 23.4976 26.7209 19.938 26.7209C16.3774 26.7209 13.4893 23.8327 13.4893 20.2727C13.4893 16.7131 16.3775 13.8245 19.938 13.8245ZM19.938 16.0025C22.2952 16.0025 24.2083 17.9152 24.2083 20.2727C24.2083 22.6303 22.2952 24.5434 19.938 24.5434C17.58 24.5434 15.6672 22.6302 15.6672 20.2727C15.6672 17.9152 17.58 16.0025 19.938 16.0025ZM26.1763 12.9307C26.7546 12.9307 27.2235 13.3996 27.2235 13.9773C27.2235 14.5555 26.7546 15.0244 26.1763 15.0244C25.5985 15.0244 25.1298 14.5555 25.1298 13.9773C25.1298 13.3995 25.5987 12.9307 26.1763 12.9307ZM15.9202 10.4317H24.0813C27.1457 10.4317 29.6519 12.9256 29.6519 15.9731V24.1751C29.6519 27.2225 27.1457 29.716 24.0813 29.716L15.9202 29.7161C12.8557 29.7161 10.349 27.2227 10.349 24.1752V15.973C10.349 12.9256 12.8557 10.4317 15.9202 10.4317Z" fill="url(#paint0_linear_2293_5121)"/>
</g>
<defs>
<linearGradient id="paint0_linear_2293_5121" x1="30.0217" y1="36.9836" x2="9.9783" y2="3.01644" gradientUnits="userSpaceOnUse">
<stop stop-color="#F58529"/>
<stop offset="0.169" stop-color="#FEDA77"/>
<stop offset="0.478" stop-color="#DD2A7B"/>
<stop offset="0.78" stop-color="#8134AF"/>
<stop offset="1" stop-color="#515BD4"/>
</linearGradient>
<clipPath id="clip0_2293_5121">
<rect width="40" height="40" fill="white"/>
</clipPath>
</defs>
</svg>
