<svg width="67" height="64" viewBox="0 0 67 64" fill="none" xmlns="http://www.w3.org/2000/svg">
<g clip-path="url(#clip0_2301_5161)">
<path fill-rule="evenodd" clip-rule="evenodd" d="M0 64H11.02L12.28 61.84L12.42 61.92L18.73 51.08H33.75C33.78 51.08 33.82 51.08 33.85 51.08C44.59 51.08 53.3 42.45 53.3 31.8C53.3 21.15 44.59 12.52 33.85 12.52C32.43 12.52 31.05 12.67 29.72 12.96L24.27 22.31H33.75C33.75 22.31 33.82 22.31 33.85 22.31C39.25 22.31 43.62 26.6 43.62 31.9C43.62 37.2 39.24 41.49 33.85 41.49C33.82 41.49 33.78 41.49 33.75 41.49H17.03H13.2C13.2 41.49 13.18 41.45 13.17 41.44C13.17 41.43 13.16 41.41 13.15 41.4L13.1 41.49L7.51 51.08L0 64Z" fill="#222A59"/>
<path fill-rule="evenodd" clip-rule="evenodd" d="M31.75 9.49C32.41 9.43 33.08 9.4 33.75 9.4C46.29 9.4 56.45 19.48 56.45 31.9C56.45 44.32 46.28 54.4 33.75 54.4H20.34L14.75 63.99H33.75C51.63 63.99 66.13 49.62 66.13 31.9C66.13 15.36 53.5 1.74 37.28 0L31.75 9.49Z" fill="#222A59"/>
</g>
<defs>
<clipPath id="clip0_2301_5161">
<rect width="66.13" height="64" fill="white"/>
</clipPath>
</defs>
</svg>
